<svg viewBox="0 0 24 24" fill="none" xmlns="http://www.w3.org/2000/svg">
<path fill-rule="evenodd" clip-rule="evenodd" d="M3.93217 3.93217C5.15414 2.7102 6.97603 2.25 9.3 2.25H14.7C17.024 2.25 18.8459 2.7102 20.0678 3.93217C21.2898 5.15414 21.75 6.97603 21.75 9.3V14.7C21.75 17.024 21.2898 18.8459 20.0678 20.0678C18.8459 21.2898 17.024 21.75 14.7 21.75H9.3C6.97603 21.75 5.15414 21.2898 3.93217 20.0678C2.7102 18.8459 2.25 17.024 2.25 14.7V9.3C2.25 6.97603 2.7102 5.15414 3.93217 3.93217ZM4.99283 4.99283C4.1898 5.79586 3.75 7.12397 3.75 9.3V14.7C3.75 16.876 4.1898 18.2041 4.99283 19.0072C5.79586 19.8102 7.12397 20.25 9.3 20.25H14.7C16.876 20.25 18.2041 19.8102 19.0072 19.0072C19.8102 18.2041 20.25 16.876 20.25 14.7V9.3C20.25 7.12397 19.8102 5.79586 19.0072 4.99283C18.2041 4.1898 16.876 3.75 14.7 3.75H9.3C7.12397 3.75 5.79586 4.1898 4.99283 4.99283ZM8.02333 7.6804C8.35287 7.38125 8.75108 7.25 9.14167 7.25C9.53226 7.25 9.93047 7.38125 10.26 7.6804C10.5824 7.97309 10.7906 8.38158 10.901 8.85993C10.9038 8.87171 10.9062 8.88357 10.9083 8.89547L12.1655 15.8669C12.239 16.2745 11.9681 16.6646 11.5605 16.7381C11.1528 16.8116 10.7628 16.5407 10.6893 16.1331L10.3368 14.1786H7.94651L7.59405 16.1331C7.52054 16.5407 7.1305 16.8116 6.72286 16.7381C6.31522 16.6646 6.04435 16.2745 6.11786 15.8669L7.375 8.89547C7.37715 8.88357 7.37959 8.87171 7.38231 8.85993C7.49269 8.38158 7.70092 7.97309 8.02333 7.6804ZM8.217 12.6786H10.0663L9.43565 9.18109C9.37485 8.92838 9.2905 8.82618 9.25179 8.79103C9.21938 8.76161 9.18902 8.75 9.14167 8.75C9.09432 8.75 9.06396 8.76161 9.03156 8.79103C8.99284 8.82618 8.9085 8.92838 8.84769 9.18109L8.217 12.6786ZM12.3917 8C12.3917 7.58579 12.7275 7.25 13.1417 7.25H15.1417C15.9299 7.25 16.6768 7.40306 17.2077 7.93396C17.7386 8.46485 17.8917 9.21174 17.8917 10V14C17.8917 14.7883 17.7386 15.5351 17.2077 16.066C16.6768 16.5969 15.9299 16.75 15.1417 16.75H13.1417C12.7275 16.75 12.3917 16.4142 12.3917 16V8ZM13.8917 8.75V15.25H15.1417C15.782 15.25 16.0351 15.1173 16.1471 15.0054C16.259 14.8934 16.3917 14.6403 16.3917 14V10C16.3917 9.35969 16.259 9.10658 16.1471 8.99462C16.0351 8.88266 15.782 8.75 15.1417 8.75H13.8917Z" fill="currentColor"/>
</svg>
