<svg viewBox="0 0 24 24" fill="none" xmlns="http://www.w3.org/2000/svg">
<path fill-rule="evenodd" clip-rule="evenodd" d="M9.13333 4.25C8.36934 4.25 7.75 4.86934 7.75 5.63333C7.75 6.39733 8.36934 7.01667 9.13333 7.01667C9.33481 7.01667 9.52433 6.97406 9.69501 6.89809C9.74107 6.87759 9.78585 6.85461 9.8292 6.8293C10.242 6.58831 10.5167 6.14247 10.5167 5.63333C10.5167 4.86934 9.89733 4.25 9.13333 4.25ZM6.25 5.63333C6.25 4.04091 7.54091 2.75 9.13333 2.75C10.7258 2.75 12.0167 4.04091 12.0167 5.63333C12.0167 6.42467 11.6977 7.14102 11.1827 7.66141L12.3798 9.71636C12.6203 9.65136 12.873 9.6167 13.1333 9.6167C13.9544 9.6167 14.6946 9.96004 15.2191 10.5094L15.8615 10.1594C15.8023 9.91544 15.7913 9.69816 15.7913 9.48079C15.7913 7.88837 17.0822 6.59746 18.6746 6.59746C19.7796 6.59746 20.7383 7.21933 21.2217 8.12868C21.4365 8.53272 21.5579 8.99369 21.5579 9.48079C21.5579 11.0732 20.267 12.3641 18.6746 12.3641C17.8536 12.3641 17.1133 12.0208 16.5888 11.4714L15.9374 11.8263C15.9892 12.0428 16.0167 12.2685 16.0167 12.5C16.0167 12.9529 15.9118 13.3826 15.7249 13.765L17.2612 15.1048C17.7199 14.7969 18.2724 14.6167 18.8667 14.6167C20.4591 14.6167 21.75 15.9076 21.75 17.5C21.75 19.0924 20.4591 20.3833 18.8667 20.3833C17.2742 20.3833 15.9833 19.0924 15.9833 17.5C15.9833 17.0469 16.0883 16.6173 16.2751 16.2351L14.7388 14.8953C14.2801 15.2032 13.7276 15.3834 13.1333 15.3834C12.3744 15.3834 11.6843 15.0898 11.17 14.6115L7.89222 16.6602C7.97316 16.9262 8.01667 17.2084 8.01667 17.5C8.01667 19.0925 6.72575 20.3834 5.13333 20.3834C3.54091 20.3834 2.25 19.0925 2.25 17.5C2.25 15.9076 3.54091 14.6167 5.13333 14.6167C5.89229 14.6167 6.58239 14.9102 7.09666 15.3885L10.3744 13.3399C10.2935 13.0738 10.25 12.7917 10.25 12.5C10.25 11.7087 10.5691 10.9923 11.084 10.4719L9.88691 8.417C9.64619 8.48205 9.39341 8.51667 9.13333 8.51667C7.54091 8.51667 6.25 7.22575 6.25 5.63333ZM18.6746 8.09746C17.9106 8.09746 17.2913 8.7168 17.2913 9.48079C17.2913 9.62163 17.2969 9.70457 17.3149 9.78678C17.3323 9.86657 17.3684 9.97588 17.4592 10.1423C17.6949 10.574 18.1514 10.8641 18.6746 10.8641C19.4386 10.8641 20.0579 10.2448 20.0579 9.48079C20.0579 9.24515 19.9996 9.02535 19.8973 8.83283C19.6638 8.39374 19.2032 8.09746 18.6746 8.09746ZM18.8667 16.1167C18.4509 16.1167 18.0786 16.2992 17.8239 16.591C17.7983 16.6203 17.774 16.6506 17.751 16.6819C17.5826 16.911 17.4833 17.1928 17.4833 17.5C17.4833 18.264 18.1027 18.8833 18.8667 18.8833C19.6307 18.8833 20.25 18.264 20.25 17.5C20.25 16.736 19.6307 16.1167 18.8667 16.1167ZM5.13333 16.1167C4.36934 16.1167 3.75 16.736 3.75 17.5C3.75 18.264 4.36934 18.8834 5.13333 18.8834C5.89733 18.8834 6.51667 18.264 6.51667 17.5C6.51667 17.2295 6.43979 16.9793 6.30702 16.7673C6.06126 16.3749 5.62717 16.1167 5.13333 16.1167Z" fill="currentColor"/>
</svg>
