<svg viewBox="0 0 24 24" fill="none" xmlns="http://www.w3.org/2000/svg">
<path d="M6 12C6 8.68632 8.6862 6 12 6C15.3138 6 18 8.68632 18 12C18 15.3137 15.3138 18 12 18C8.6862 18 6 15.3137 6 12Z" fill="white"/>
<path d="M12 21C9.7632 20.9459 8.8782 19.4509 8.6082 18.0071C8.4612 17.2222 8.5254 15.9171 8.6082 15.4513C8.742 14.692 8.958 13.6008 9.1974 12.3346C9.5394 10.5202 10.4478 9.48815 12.4092 9.12011L15.6168 8.50751C15.702 8.03137 15.8628 6.77037 15.7164 5.99313C15.4434 4.53388 14.319 3.02316 12.036 3C7.0638 3 3 7.02773 3 12C3 16.9723 7.0278 21 12 21Z" fill="url(#paint0_linear_9_20522)"/>
<path d="M11.9995 3C14.2357 3.05405 15.3428 4.5519 15.6128 5.99571C15.7598 6.78067 15.4741 8.08293 15.3913 8.54874C15.2575 9.30798 15.0415 10.3992 14.8021 11.6654C14.4601 13.4798 13.5511 14.5118 11.5904 14.8799L8.60535 15.466C8.52015 15.9421 8.23995 17.2289 8.38635 18.0062C8.65935 19.4654 9.68055 20.9768 11.9636 21C16.9358 21 20.9995 16.9723 20.9995 12C20.9995 7.02774 16.9717 3 11.9995 3Z" fill="url(#paint1_linear_9_20522)"/>
<defs>
<linearGradient id="paint0_linear_9_20522" x1="3" y1="21" x2="17.1648" y2="4.00886" gradientUnits="userSpaceOnUse">
<stop stop-color="#D2DFFF"/>
<stop offset="1" stop-color="#4E7FFF"/>
</linearGradient>
<linearGradient id="paint1_linear_9_20522" x1="20.9995" y1="3" x2="6.61275" y2="19.489" gradientUnits="userSpaceOnUse">
<stop stop-color="#D2DFFF"/>
<stop offset="1" stop-color="#4E7FFF"/>
</linearGradient>
</defs>
</svg>
