<svg viewBox="0 0 24 24" fill="none" xmlns="http://www.w3.org/2000/svg">
  <path
    d="M16.3 18.6H7.4C6.1 18.6 5 17.5 5 16.2V7.4C5 6.1 6.1 5 7.4 5H16.3C17.6 5 18.7 6.1 18.7 7.4V16.3C18.7 17.6 17.6 18.6 16.3 18.6Z"
    fill="#56749F" />
  <path
    d="M15.7 6.70001H10.7C9.90005 6.70001 9.30005 7.30001 9.30005 8.00001V9.30001H8.10005C7.40005 9.30001 6.80005 9.90001 6.80005 10.6V15.5C6.80005 16.2 7.40005 16.8 8.10005 16.8H13.1C13.8 16.8 14.4 16.2 14.4 15.5V14.2H15.6C16.3 14.2 16.9 13.6 16.9 12.9V8.00001C17 7.30001 16.4 6.70001 15.7 6.70001ZM15.6 12.3C15.6 12.7 15.3 13 14.9 13H13.1V15C13.1 15.4 12.8 15.7 12.4 15.7H8.90005C8.50005 15.7 8.20005 15.4 8.20005 15V11.3C8.20005 10.9 8.50005 10.6 8.90005 10.6H10.7V8.60001C10.7 8.20001 11 7.90001 11.4 7.90001H14.9C15.3 7.90001 15.6 8.20001 15.6 8.60001V12.3Z"
    fill="#9FEA6C" />
  <path
    d="M14.4 8.89996H12.2C11.9 8.89996 11.7 9.19996 11.7 9.39996V11.5C11.7 11.5 11.7 11.5 11.6 11.5H9.40002C9.10002 11.5 8.90002 11.7 8.90002 12V14.2C8.90002 14.5 9.10002 14.7 9.40002 14.7H11.6C11.9 14.7 12.1 14.5 12.1 14.2V12.1C12.1 12.1 12.1 12.1 12.2 12.1H14.4C14.7 12.1 14.9 11.9 14.9 11.6V9.39996C14.8 9.19996 14.6 8.89996 14.4 8.89996Z"
    fill="#FFEE6B" />
</svg>
