<svg viewBox="0 0 24 24" fill="none" xmlns="http://www.w3.org/2000/svg">
<path fill-rule="evenodd" clip-rule="evenodd" d="M3 12C3 11.4696 3.21071 10.9609 3.58579 10.5858C3.96086 10.2107 4.46957 10 5 10L19 10C19.5304 10 20.0391 10.2107 20.4142 10.5858C20.7893 10.9609 21 11.4696 21 12C21 12.5304 20.7893 13.0391 20.4142 13.4142C20.0391 13.7893 19.5304 14 19 14H5C4.46957 14 3.96086 13.7893 3.58579 13.4142C3.21071 13.0391 3 12.5304 3 12ZM19 13C19.5523 13 20 12.5523 20 12C20 11.4477 19.5523 11 19 11C18.4477 11 18 11.4477 18 12C18 12.5523 18.4477 13 19 13Z" fill="#0E73F6"/>
<path fill-rule="evenodd" clip-rule="evenodd" d="M3 6C3 5.46957 3.21071 4.96086 3.58579 4.58579C3.96086 4.21071 4.46957 4 5 4L13 4C13.5304 4 14.0391 4.21071 14.4142 4.58579C14.7893 4.96086 15 5.46957 15 6C15 6.53043 14.7893 7.03914 14.4142 7.41421C14.0391 7.78929 13.5304 8 13 8H5C4.46957 8 3.96086 7.78929 3.58579 7.41421C3.21071 7.03914 3 6.53043 3 6Z" fill="#9AA6AC"/>
<path fill-rule="evenodd" clip-rule="evenodd" d="M17 6C17 5.46957 17.2107 4.96086 17.5858 4.58579C17.9609 4.21071 18.4696 4 19 4C19.5304 4 20.0391 4.21071 20.4142 4.58579C20.7893 4.96086 21 5.46957 21 6C21 6.53043 20.7893 7.03914 20.4142 7.41421C20.0391 7.78929 19.5304 8 19 8C18.4696 8 17.9609 7.78929 17.5858 7.41421C17.2107 7.03914 17 6.53043 17 6ZM19 7C19.5523 7 20 6.55228 20 6C20 5.44772 19.5523 5 19 5C18.4477 5 18 5.44772 18 6C18 6.55228 18.4477 7 19 7Z" fill="#9AA6AC"/>
<path fill-rule="evenodd" clip-rule="evenodd" d="M9 18C9 17.4696 9.21071 16.9609 9.58579 16.5858C9.96086 16.2107 10.4696 16 11 16L19 16C19.5304 16 20.0391 16.2107 20.4142 16.5858C20.7893 16.9609 21 17.4696 21 18C21 18.5304 20.7893 19.0391 20.4142 19.4142C20.0391 19.7893 19.5304 20 19 20H11C10.4696 20 9.96086 19.7893 9.58579 19.4142C9.21071 19.0391 9 18.5304 9 18ZM19 19C19.5523 19 20 18.5523 20 18C20 17.4477 19.5523 17 19 17C18.4477 17 18 17.4477 18 18C18 18.5523 18.4477 19 19 19Z" fill="#002266"/>
<circle cx="5" cy="18" r="2" fill="#002266"/>
</svg>
