<svg viewBox="0 0 24 24" fill="none" xmlns="http://www.w3.org/2000/svg">
  <path fill-rule="evenodd" clip-rule="evenodd"
    d="M7.71538 4C7.40847 4.00048 7.11427 4.12259 6.89725 4.33957C6.68023 4.55655 6.5581 4.85069 6.55762 5.15755V13.7237C6.55762 14.0308 6.67956 14.3254 6.89665 14.5426C7.11374 14.7599 7.40822 14.8821 7.71538 14.8824H16.2846C16.5918 14.8822 16.8864 14.76 17.1036 14.5428C17.3207 14.3255 17.4427 14.0309 17.4427 13.7237V5.15755C17.4421 4.85069 17.3198 4.5566 17.1028 4.33965C16.8857 4.12271 16.5915 4.00058 16.2846 4H7.71538ZM7.20706 13.7234V5.15755C7.20715 5.09093 7.22038 5.02499 7.24599 4.9635C7.27159 4.90201 7.30907 4.84616 7.35629 4.79916C7.4035 4.75216 7.45951 4.71493 7.52113 4.68959C7.58274 4.66426 7.64875 4.65132 7.71538 4.65151H16.2846C16.5643 4.65151 16.7926 4.87791 16.7926 5.15755V13.7237C16.7926 14.0056 16.5643 14.2334 16.2846 14.2334H7.71538C7.4346 14.2334 7.20706 14.0056 7.20706 13.7234Z"
    fill="#698DBA" />
  <path fill-rule="evenodd" clip-rule="evenodd"
    d="M10.2734 6.56079C9.96714 6.56127 9.67359 6.68311 9.45705 6.89961C9.24051 7.11611 9.11865 7.40961 9.11816 7.71579V16.2846C9.11836 16.591 9.24008 16.8848 9.45664 17.1016C9.6732 17.3184 9.96692 17.4405 10.2734 17.441H18.8426C19.1494 17.4409 19.4436 17.3191 19.6606 17.1023C19.8777 16.8854 19.9997 16.5913 20 16.2846V7.71579C19.9993 7.40929 19.8771 7.11558 19.6601 6.89906C19.4432 6.68253 19.1492 6.56089 18.8426 6.56079H10.2734ZM9.76578 16.2849V7.71579C9.76597 7.58145 9.81951 7.45268 9.91462 7.35779C10.0097 7.2629 10.1386 7.20965 10.273 7.20975H18.8422C19.1234 7.20975 19.3495 7.43579 19.3495 7.71579V16.2846C19.3495 16.5664 19.1234 16.7917 18.8422 16.7917H10.273C10.2064 16.7918 10.1405 16.7787 10.0789 16.7532C10.0174 16.7278 9.96147 16.6905 9.91436 16.6434C9.86726 16.5964 9.82989 16.5405 9.8044 16.479C9.7789 16.4175 9.76578 16.3515 9.76578 16.2849Z"
    fill="#698DBA" />
  <path fill-rule="evenodd" clip-rule="evenodd"
    d="M5.15703 9.11945C4.85035 9.11983 4.55633 9.24178 4.33944 9.45857C4.12255 9.67535 4.00048 9.96927 4 10.2759V18.8436C3.9999 18.9955 4.02977 19.1459 4.08789 19.2863C4.146 19.4267 4.23123 19.5542 4.33869 19.6616C4.44616 19.7691 4.57375 19.8542 4.71417 19.9123C4.85459 19.9703 5.00508 20.0002 5.15703 20H13.7255C13.8775 20.0001 14.0279 19.9702 14.1683 19.9121C14.3087 19.854 14.4363 19.7688 14.5438 19.6614C14.6512 19.5541 14.7365 19.4266 14.7947 19.2862C14.8529 19.1459 14.8829 18.9955 14.8829 18.8436V10.2759C14.8821 9.9693 14.7599 9.67549 14.543 9.45876C14.3261 9.24203 14.0322 9.12002 13.7255 9.11945H5.15703ZM4.64871 18.8432V10.2755C4.64871 9.997 4.87588 9.76877 5.15739 9.76877H13.7259C14.0063 9.76877 14.2342 9.997 14.2342 10.2755V18.8432C14.2342 19.1232 14.0063 19.3518 13.7259 19.3518H5.15703C5.02218 19.3517 4.89289 19.2981 4.79757 19.2027C4.70225 19.1073 4.64871 18.978 4.64871 18.8432Z"
    fill="#698DBA" />
</svg>
