<svg viewBox="0 0 24 24" fill="none" xmlns="http://www.w3.org/2000/svg">
<path fill-rule="evenodd" clip-rule="evenodd" d="M7.62753 5.03081C7.03643 5.03081 6.54507 5.05018 6.12336 5.11013C6.11522 5.11129 6.10706 5.11231 6.09888 5.11321C4.92306 5.24222 4.38596 5.55836 4.07604 6.02663C3.72054 6.56378 3.53846 7.47316 3.53846 9.09953V14.9005C3.53846 16.5268 3.72054 17.4362 4.07604 17.9734C4.38596 18.4416 4.92306 18.7578 6.09888 18.8868C6.10706 18.8877 6.11522 18.8887 6.12336 18.8899C6.54507 18.9498 7.03643 18.9692 7.62753 18.9692H16.3725C16.9636 18.9692 17.4549 18.9498 17.8766 18.8899C17.8809 18.8893 17.8852 18.8887 17.8895 18.8882C17.8934 18.8877 17.8973 18.8872 17.9011 18.8868C19.0769 18.7578 19.614 18.4416 19.924 17.9734C20.2795 17.4362 20.4615 16.5268 20.4615 14.9005V9.09953C20.4615 7.47316 20.2795 6.56378 19.924 6.02663C19.614 5.55836 19.0769 5.24222 17.9011 5.11321C17.8929 5.11231 17.8848 5.11129 17.8766 5.11013C17.4549 5.05018 16.9636 5.03081 16.3725 5.03081H7.62753ZM5.91811 3.59297C6.44524 3.519 7.01852 3.5 7.62753 3.5H16.3725C16.9815 3.5 17.5548 3.519 18.0819 3.59297C19.4558 3.74549 20.5369 4.16947 21.2088 5.1847C21.8371 6.13404 22 7.45803 22 9.09953V14.9005C22 16.542 21.8371 17.866 21.2088 18.8153C20.5369 19.8305 19.4558 20.2545 18.0819 20.407C17.5548 20.481 16.9815 20.5 16.3725 20.5H7.62753C7.01851 20.5 6.44524 20.481 5.9181 20.407C4.54424 20.2545 3.46307 19.8305 2.79116 18.8153C2.16286 17.866 2 16.542 2 14.9005V9.09953C2 7.45803 2.16286 6.13404 2.79116 5.1847C3.46307 4.16947 4.54424 3.74549 5.91811 3.59297ZM8.03756 8.8623C7.51831 8.8623 7.09738 9.28113 7.09738 9.79779C7.09738 10.3144 7.51831 10.7333 8.03756 10.7333C8.5568 10.7333 8.97773 10.3144 8.97773 9.79779C8.97773 9.28113 8.5568 8.8623 8.03756 8.8623ZM5.55892 9.79779C5.55892 8.43569 6.66864 7.33149 8.03756 7.33149C9.40647 7.33149 10.5162 8.43569 10.5162 9.79779C10.5162 10.7121 10.0161 11.5103 9.27331 11.9362C10.6482 12.3506 11.7436 13.4413 11.7436 14.9005C11.7436 15.3232 11.3992 15.6659 10.9744 15.6659C10.5495 15.6659 10.2051 15.3232 10.2051 14.9005C10.2051 14.1462 9.38851 13.2846 8.03761 13.2846C6.68671 13.2846 5.87009 14.1462 5.87009 14.9005C5.87009 15.3232 5.52569 15.6659 5.10086 15.6659C4.67602 15.6659 4.33163 15.3232 4.33163 14.9005C4.33163 13.4413 5.42702 12.3506 6.80183 11.9362C6.05899 11.5103 5.55892 10.7121 5.55892 9.79779ZM12.7692 10.1201C12.7692 9.69734 13.1136 9.35466 13.5385 9.35466H18.1795C18.6043 9.35466 18.9487 9.69734 18.9487 10.1201C18.9487 10.5428 18.6043 10.8855 18.1795 10.8855H13.5385C13.1136 10.8855 12.7692 10.5428 12.7692 10.1201ZM12.7692 13.0205C12.7692 12.5978 13.1136 12.2551 13.5385 12.2551H17.641C18.0659 12.2551 18.4103 12.5978 18.4103 13.0205C18.4103 13.4432 18.0659 13.7859 17.641 13.7859H13.5385C13.1136 13.7859 12.7692 13.4432 12.7692 13.0205Z" fill="currentColor"/>
</svg>
