<svg viewBox="0 0 24 24" fill="none" xmlns="http://www.w3.org/2000/svg">
<path fill-rule="evenodd" clip-rule="evenodd" d="M3.93217 3.93217C5.15414 2.7102 6.97603 2.25 9.3 2.25H14.7C17.024 2.25 18.8459 2.7102 20.0678 3.93217C21.2898 5.15414 21.75 6.97603 21.75 9.3V14.7C21.75 17.024 21.2898 18.8459 20.0678 20.0678C18.8459 21.2898 17.024 21.75 14.7 21.75H9.3C6.97603 21.75 5.15414 21.2898 3.93217 20.0678C2.7102 18.8459 2.25 17.024 2.25 14.7V9.3C2.25 6.97603 2.7102 5.15414 3.93217 3.93217ZM4.99283 4.99283C4.1898 5.79586 3.75 7.12397 3.75 9.3V14.7C3.75 16.876 4.1898 18.2041 4.99283 19.0072C5.79586 19.8102 7.12397 20.25 9.3 20.25H14.7C16.876 20.25 18.2041 19.8102 19.0072 19.0072C19.8102 18.2041 20.25 16.876 20.25 14.7V9.3C20.25 7.12397 19.8102 5.79586 19.0072 4.99283C18.2041 4.1898 16.876 3.75 14.7 3.75H9.3C7.12397 3.75 5.79586 4.1898 4.99283 4.99283Z" fill="currentColor"/>
<path fill-rule="evenodd" clip-rule="evenodd" d="M14.293 7.6804C14.6225 7.38125 15.0207 7.25 15.4113 7.25C15.8019 7.25 16.2001 7.38125 16.5297 7.6804C16.8521 7.97309 17.0603 8.38158 17.1707 8.85993C17.1734 8.87171 17.1759 8.88357 17.178 8.89547L18.4351 15.8669C18.5086 16.2745 18.2378 16.6646 17.8301 16.7381C17.4225 16.8116 17.0325 16.5407 16.959 16.1331L16.6065 14.1786H14.2162L13.8637 16.1331C13.7902 16.5407 13.4002 16.8116 12.9925 16.7381C12.5849 16.6646 12.314 16.2745 12.3875 15.8669L13.6447 8.89547C13.6468 8.88357 13.6492 8.87171 13.652 8.85993C13.7624 8.38158 13.9706 7.97309 14.293 7.6804ZM14.4867 12.6786H16.336L15.7053 9.18109C15.6445 8.92838 15.5602 8.82618 15.5214 8.79103C15.489 8.76161 15.4587 8.75 15.4113 8.75C15.364 8.75 15.3336 8.76161 15.3012 8.79103C15.2625 8.82617 15.1782 8.92838 15.1174 9.18109L14.4867 12.6786Z" fill="currentColor"/>
<path d="M9.20703 16.7686C8.63281 16.7686 8.26367 16.3857 8.27734 15.8252L8.30469 12.9746L5.83691 8.90723C5.625 8.55176 5.5498 8.34668 5.5498 8.12109C5.5498 7.61523 5.8916 7.28027 6.4043 7.28027C6.80078 7.28027 7.06055 7.47852 7.32715 7.98438L9.16602 11.334H9.23438L11.1006 7.98438C11.3672 7.49902 11.6475 7.28027 12.0303 7.28027C12.5156 7.28027 12.8643 7.62207 12.8643 8.09375C12.8643 8.31934 12.7754 8.53809 12.543 8.93457L10.0957 12.9746L10.123 15.8252C10.1367 16.3857 9.76758 16.7686 9.20703 16.7686Z" fill="currentColor"/>
</svg>
